<svg width="95" height="70" viewBox="0 0 95 70" fill="none" xmlns="http://www.w3.org/2000/svg">
<path d="M26.3594 39.6296C27.6247 36.7525 34.0722 25.8438 34.0722 23.9258C34.0722 23.2664 33.8311 22.5472 33.4997 22.5472C32.9574 22.5472 28.1068 30.5789 24.7927 38.5507C23.3165 38.7905 21.9607 38.9103 20.9364 38.9703C21.5992 37.5317 22.2922 36.1831 22.985 34.8945L23.8286 33.3361C26.2388 28.8708 28.3478 25.7839 28.3478 23.9258C28.3478 23.2664 28.1068 22.5472 27.7754 22.5472C26.8413 22.5472 20.2133 35.434 19.0081 38.9703C17.8332 39.1202 16.2968 39.4498 15.1519 39.8095C16.8691 36.2131 17.562 34.8345 18.0441 33.9355C20.364 29.4701 22.4729 26.3832 22.4729 24.3454C22.4729 23.656 22.2318 22.9368 21.8704 22.9368C21.1774 22.9368 17.4717 29.9496 15.5436 34.0853C13.8563 37.7416 13.7358 38.251 13.5551 38.7306C13.2538 39.5397 13.2538 39.9293 13.525 40.4388C13.7358 40.8283 13.9166 41.2779 14.1577 41.5476C14.5191 41.9973 14.8506 41.9973 15.423 41.8474C17.1102 41.3978 20.3941 40.6785 21.7197 40.6486C23.2562 40.6186 24.4011 40.4987 25.3953 40.4388C25.9677 40.3489 26.1184 40.1691 26.3594 39.6296Z" fill="#71B639"/>
<path d="M45.6714 24.7948C46.0329 24.8547 46.0931 24.6449 46.0027 24.4052C45.6412 23.4162 44.9784 22.9067 43.713 22.9367C42.0259 22.9667 38.7118 23.8358 36.2112 23.6859C35.9099 23.656 35.8195 23.7759 35.8799 24.0455C36.0605 24.6749 36.392 25.2743 37.1452 25.574C34.6144 29.47 31.6017 35.0442 30.2158 38.7305C29.9146 39.5396 29.9146 39.9292 30.1857 40.4388C30.3966 40.8283 30.5774 41.2778 30.8183 41.5475C31.1798 41.9971 31.5113 41.9971 32.0837 41.8472C33.7709 41.3978 37.0548 40.6185 38.7419 40.6485C39.1034 40.6485 39.1336 40.4686 39.0432 40.1989C38.7118 39.2999 37.9586 38.8204 36.4823 38.8803C35.2471 38.9403 33.2587 39.3598 31.8125 39.8094C32.4453 38.4008 33.2587 36.7525 34.1324 35.0742C35.8195 34.6547 38.0791 34.2351 39.706 34.2351C40.0977 34.2351 40.0977 34.0553 40.0073 33.7855C39.706 32.8564 39.0432 32.3769 37.5368 32.437C36.9945 32.4669 36.2112 32.5268 35.3978 32.6767C36.8741 30.0095 38.3503 27.4021 39.5555 25.6039C41.3932 25.3043 43.5021 24.7649 45.6714 24.7948Z" fill="#71B639"/>
<path d="M50.2139 35.7698C52.1926 31.978 54.2897 28.1799 55.4028 26.2333C55.9712 25.2339 56.2959 24.3963 56.4458 23.6971C58.0999 23.9624 58.747 24.7772 58.747 26.4432C58.747 30.7748 54.5144 35.0313 50.2139 35.7698ZM45.1594 32.6767C45.1594 28.7604 50.2644 24.1215 54.2855 23.6399C52.3203 26.8698 49.5978 31.9252 47.7555 35.7994C45.9628 35.5225 45.1594 34.5302 45.1594 32.6767ZM60.8861 27.1024C60.8861 25.1289 59.1342 23.2397 56.5336 23.1224C56.5869 22.5093 56.4895 22.0249 56.3067 21.6481C56.1259 21.2884 55.8548 21.2284 55.5836 21.6181C55.4019 21.8792 55.2025 22.1793 54.9891 22.5116C54.7027 22.4758 54.3257 22.4572 53.8061 22.4572C48.5638 22.4572 42.8696 26.3532 42.8696 32.1972C42.8696 34.1791 44.0113 36.1182 47.3345 36.6976C46.8054 37.8443 46.3748 38.8525 46.0934 39.6295C45.4306 41.4577 45.792 42.5065 46.2139 42.9562C46.4549 43.2258 46.5754 43.1958 46.6959 42.8962C47.4578 41.1937 48.5125 39.0633 49.6433 36.8699C56.2398 36.8177 60.8861 32.3165 60.8861 27.1024Z" fill="#71B639"/>
<path d="M60.9767 35.9433C61.037 38.4007 62.212 40.2588 63.5677 40.9781C65.1946 41.8473 67.7253 41.8772 69.8643 40.3488C71.1298 39.4497 73.0579 37.2021 72.3047 35.194C72.154 34.8045 71.8227 34.8045 71.6721 35.1341C69.3824 39.5996 66.1888 41.6074 64.2607 40.0491C62.7844 38.8504 62.4831 34.4149 65.1343 30.0393C67.8458 25.574 72.4252 23.1464 73.2688 24.0456C73.9617 24.7648 72.8772 26.4731 72.3952 28.0614C71.9432 29.5599 72.4252 30.4889 73.1182 30.9384C73.4797 31.1782 73.6906 30.9983 73.781 30.7587C74.1124 29.8895 74.5342 28.7208 74.9862 27.7916C75.438 26.8626 75.5284 26.0235 75.2573 25.1545C75.0162 24.4052 74.3233 23.5361 73.6604 22.9667C72.6963 22.1275 71.2201 22.2474 69.5932 22.8768C66.2189 24.1655 60.8561 29.5898 60.9767 35.9433Z" fill="#71B639"/>
<path d="M52.1333 44.5764C50.457 46.8604 50.052 47.8941 49.5847 49.5621C49.267 50.6805 49.4052 51.2481 49.7301 51.5339C49.8819 51.6683 50.0426 51.6222 50.0946 51.4749C51.4546 48.0763 52.015 47.555 52.6849 46.1804C53.0832 45.3632 52.8738 44.9621 52.688 44.6136C52.5249 44.2996 52.303 44.3497 52.1333 44.5764Z" fill="#71B639"/>
<path d="M76.4531 44.1506C77.0156 43.6651 77.9439 43.4629 78.0823 44.0304C78.1637 44.3494 78.1107 44.8029 78.0032 45.3678C77.8947 45.915 77.5429 46.8195 77.2689 47.3407C76.3748 49.0534 75.1717 49.7591 74.5748 49.3823C74.02 49.021 74.2213 47.3517 74.9908 45.9349C75.3755 45.2266 75.929 44.5976 76.4531 44.1506ZM66.6407 50.0956C65.8449 50.1277 66.0098 48.5326 66.9922 46.9224C68.0118 45.2559 69.4255 43.9967 70.0811 44.0098C70.6753 44.0265 70.5624 45.15 69.4037 47.2035C68.4643 48.8469 67.4775 50.0613 66.6407 50.0956ZM81.0992 39.0153C81.7162 38.4184 81.8405 37.4744 81.6909 37.0516C81.6162 36.8401 81.4939 36.8478 81.3818 37.0168C80.7696 38.0096 79.7622 38.577 78.912 39.0446C76.2847 40.4866 75.1333 42.0161 73.5816 45.5825C73.2022 46.3422 72.9903 47.1134 73.0167 47.8081C72.3806 48.9119 71.4934 49.9043 70.7662 49.9813C70.0756 50.0605 70.0472 49.288 70.4929 48.2517C70.9218 47.2703 71.8554 45.8613 72.2526 45.0261C72.6849 44.0986 72.4731 43.3375 72.1471 43.0338C71.9941 42.8813 71.8333 42.9275 71.6647 43.1722C71.4587 43.4732 71.238 43.8652 71.0004 44.3122C70.9969 43.6102 70.5518 43.0439 69.6756 43.0988C68.6566 43.1626 67.098 44.0706 65.5813 46.2906C64.8983 47.2913 64.6185 48.2873 64.68 49.0796C64.1474 49.8195 63.5647 50.373 63.0201 50.4307C62.2276 50.5164 62.1086 49.9296 62.5102 48.842L63.8793 44.9387C64.1044 44.2943 64.0408 43.6141 63.7147 43.3103C63.5403 43.1412 63.1962 43.1987 63.0083 43.4627L61.0539 46.5203C59.1005 49.5959 58.1702 50.7346 57.6404 50.7679C57.3842 50.784 57.273 50.4986 57.2899 50.1036C57.5183 49.825 57.6964 49.5408 57.8334 49.2972C58.1108 48.8297 58.1242 48.3966 58.0087 48.1878C57.8931 47.9789 57.7109 48.0083 57.6022 48.2314C57.5351 48.3742 57.4602 48.5215 57.3793 48.6701C57.1331 48.7488 56.8144 48.9738 56.7071 49.2779C56.6307 49.4858 56.5687 49.7089 56.5339 49.9283C56.0956 50.4493 55.6167 50.8235 55.188 50.8136C54.4091 50.7903 53.7738 49.8037 53.5991 48.338C55.7488 47.3931 56.6112 46.4746 57.254 45.3179C57.6581 44.5902 57.2174 43.7716 56.6844 44.3991C55.4665 45.8441 54.2034 46.8957 52.5064 47.5602C52.1271 47.71 52.0887 47.7484 52.1091 48.0714C52.2218 50.4952 53.4889 51.4423 54.9163 51.3708C55.605 51.3353 56.1564 51.0938 56.5974 50.7684C56.7446 51.1045 57.083 51.3251 57.7343 51.2842C58.8347 51.2152 60.0843 49.9485 61.6325 46.9343L61.7966 46.942C60.2225 50.1919 60.936 51.1196 62.8108 51.0021C63.5692 50.9546 64.3447 50.5269 64.9323 49.9527C65.2208 50.4548 65.7407 50.7465 66.4541 50.7017C67.4321 50.6404 68.3073 49.9192 68.9127 49.1431C68.966 49.986 69.5731 50.5242 70.6768 50.5091C71.6506 50.4948 72.6964 49.6922 73.2628 48.8151C73.3616 49.0141 73.4892 49.2003 73.6533 49.3682C74.5276 50.2496 75.551 50.2575 76.271 49.9964C77.7506 49.4535 78.9819 47.5756 79.2509 46.0101C79.3403 45.4822 79.3119 45.3579 79.3232 45.2132C79.3637 43.9142 78.7444 43.8269 78.2405 43.3002C77.8023 42.8415 77.4457 42.7017 76.8161 42.7772C76.3894 42.8292 75.9683 43.0022 75.5706 43.2568C76.7648 40.9647 79.9546 40.1584 81.0992 39.0153Z" fill="#71B639"/>
<path d="M29.967 18.5313C30.0185 18.5417 30.07 18.5522 30.1216 18.5627C30.3778 18.615 30.641 18.5276 30.8181 18.336C35.3487 13.4353 41.8439 10.3586 49.0488 10.3586C56.0146 10.3586 62.3172 13.2345 66.8221 17.8542C67.069 18.1074 67.461 18.1455 67.7585 17.9538C67.7603 17.9527 67.7621 17.9515 67.7638 17.9504C67.7974 17.9288 67.8311 17.9072 67.8649 17.8856C68.2582 17.6341 68.3267 17.0874 68.0015 16.7532C63.201 11.8209 56.4789 8.74996 49.0488 8.74996C41.3432 8.74996 34.3987 12.0526 29.5698 17.3092C29.1807 17.7329 29.4017 18.4167 29.967 18.5313Z" fill="#71B639"/>
<path d="M65.6309 53.9365C65.6256 53.934 65.6202 53.9315 65.6149 53.929C65.3321 53.7955 64.9994 53.8403 64.7576 54.0381C60.4795 57.5374 55.0068 59.6414 49.0488 59.6414C38.4169 59.6414 29.328 52.9441 25.8215 43.5679C25.6762 43.1794 25.2572 42.9662 24.8562 43.0789C24.8509 43.0804 24.8457 43.0819 24.8405 43.0833C24.3914 43.2092 24.1422 43.6889 24.3048 44.1239C28.0394 54.1137 37.7216 61.25 49.0488 61.25C55.4012 61.25 61.2363 59.0054 65.7954 55.2718C66.2485 54.9008 66.1609 54.187 65.6309 53.9365Z" fill="#71B639"/>
</svg>
