<svg width="40" height="40" viewBox="0 0 40 40" fill="none" xmlns="http://www.w3.org/2000/svg">
<circle cx="20" cy="20" r="20" fill="#65BF4F"/>
<circle cx="20" cy="20" r="20" fill="#A1A75C"/>
<path d="M12.5976 12.3037L13.678 11.4033C14.3693 10.8272 15.3859 10.8733 16.0223 11.5096L18.0661 13.5534C18.8323 14.3196 18.8323 15.5619 18.0661 16.3281L17.1229 17.1635C16.7635 17.5229 16.7066 18.085 17 18.5C17.4945 19.1994 18.4222 20.2161 19.1031 20.897C19.7839 21.5778 20.8006 22.5055 21.5 23C21.915 23.2934 22.4771 23.2365 22.8365 22.8771L23.6719 21.9339C24.4381 21.1677 25.6804 21.1677 26.4466 21.9339L28.4904 23.9777C29.1267 24.6141 29.1728 25.6307 28.5967 26.322L27.6963 27.4024C26.7105 28.5854 25.1822 29.1731 23.6578 28.9553C22.0402 28.7242 20.4805 28.1717 19.1403 27.237C17.9783 26.4266 16.5703 25.3715 15.5994 24.4006C14.6285 23.4297 13.5734 22.0217 12.763 20.8597C11.8283 19.5195 11.2758 17.9598 11.0447 16.3422C10.8269 14.8178 11.4146 13.2895 12.5976 12.3037Z" stroke="white" stroke-width="2"/>
</svg>
